<svg xmlns="http://www.w3.org/2000/svg" viewBox="0 0 600 600" width="600" height="600" role="img" aria-label="3-moulage"><rect width="600" height="600" fill="#f4f4f2"/><ellipse cx="300" cy="470" rx="200" ry="16" fill="#231f1c" fill-opacity=".07"/><rect x="110" y="160" width="380" height="290" rx="10" fill="none" stroke="#5f5953" stroke-width="3" stroke-linecap="round" stroke-linejoin="round"/><rect x="126" y="176" width="62" height="45" rx="5" fill="#F3EDE0"/><rect x="198" y="176" width="62" height="45" rx="5" fill="#F3EDE0"/><rect x="270" y="176" width="62" height="45" rx="5" fill="#F3EDE0"/><rect x="342" y="176" width="62" height="45" rx="5" fill="#F3EDE0"/><rect x="414" y="176" width="62" height="45" rx="5" fill="#F3EDE0"/><rect x="126" y="229" width="62" height="45" rx="5" fill="#F3EDE0"/><rect x="198" y="229" width="62" height="45" rx="5" fill="#F3EDE0"/><rect x="270" y="229" width="62" height="45" rx="5" fill="#F3EDE0"/><rect x="342" y="229" width="62" height="45" rx="5" fill="#F3EDE0"/><rect x="414" y="229" width="62" height="45" rx="5" fill="#F3EDE0"/><rect x="126" y="282" width="62" height="45" rx="5" fill="#F3EDE0"/><rect x="198" y="282" width="62" height="45" rx="5" fill="#F3EDE0"/><rect x="270" y="282" width="62" height="45" rx="5" fill="#F3EDE0"/><rect x="342" y="282" width="62" height="45" rx="5" fill="#F3EDE0"/><rect x="414" y="282" width="62" height="45" rx="5" fill="#F3EDE0"/><rect x="126" y="335" width="62" height="45" rx="5" fill="#F3EDE0"/><rect x="198" y="335" width="62" height="45" rx="5" fill="#F3EDE0"/><rect x="270" y="335" width="62" height="45" rx="5" fill="#F3EDE0"/><rect x="342" y="335" width="62" height="45" rx="5" fill="#F3EDE0"/><rect x="414" y="335" width="62" height="45" rx="5" fill="#F3EDE0"/><rect x="126" y="388" width="62" height="45" rx="5" fill="#F3EDE0"/><rect x="198" y="388" width="62" height="45" rx="5" fill="#F3EDE0"/><rect x="270" y="388" width="62" height="45" rx="5" fill="#F3EDE0"/><rect x="342" y="388" width="62" height="45" rx="5" fill="#F3EDE0"/><rect x="414" y="388" width="62" height="45" rx="5" fill="#F3EDE0"/></svg>
